<?xml version="1.0" standalone="no"?>
<!DOCTYPE svg PUBLIC "-//W3C//DTD SVG 20010904//EN"
 "http://www.w3.org/TR/2001/REC-SVG-20010904/DTD/svg10.dtd">
<svg version="1.0" xmlns="http://www.w3.org/2000/svg"
 width="450.000000pt" height="450.000000pt" viewBox="0 0 450.000000 450.000000"
 preserveAspectRatio="xMidYMid meet">
<metadata>
Created by potrace 1.10, written by Peter Selinger 2001-2011
</metadata>
<g transform="translate(0.000000,450.000000) scale(0.100000,-0.100000)"
fill="#000000" stroke="none">
<path d="M1362 4060 l-22 -21 0 -1739 0 -1740 -355 0 -355 0 0 44 0 45 33 -10
c81 -24 179 27 222 115 25 51 27 62 21 128 -8 86 -8 103 0 186 5 51 2 70 -16
108 -24 49 -74 88 -127 99 -18 4 -33 11 -33 15 0 20 -68 85 -107 102 -100 44
-220 -31 -239 -149 -5 -34 -12 -44 -36 -54 -69 -28 -138 -146 -138 -235 0
-131 113 -254 233 -254 l47 0 0 -70 0 -70 -140 0 -140 0 0 -70 0 -70 2040 0
2040 0 0 70 0 70 -105 0 -105 0 0 39 c0 37 3 41 45 61 105 51 174 186 161 319
-8 90 -48 225 -92 314 -71 142 -141 200 -215 178 -120 -36 -260 -352 -247
-556 8 -118 70 -215 165 -257 40 -18 43 -21 43 -58 l0 -40 -250 0 -250 0 0 40
c0 37 2 40 48 60 145 64 208 232 139 372 -50 102 -140 159 -251 160 -111 1
-203 -57 -253 -160 -68 -140 -5 -308 140 -372 45 -20 47 -23 47 -60 l0 -40
-145 0 -145 0 0 1738 c0 955 -4 1742 -8 1748 -22 33 -48 34 -839 34 -780 0
-789 0 -811 -20z m283 -9 c11 0 314 1 673 2 501 1 655 -2 664 -11 7 -7 13 -31
14 -55 1 -23 2 -802 3 -1731 1 -1222 4 -1693 12 -1703 9 -10 46 -13 148 -13
75 0 141 4 147 8 6 4 15 22 19 41 9 42 -9 77 -43 86 -37 9 -89 53 -124 103
-25 36 -32 58 -36 113 -8 112 40 204 132 252 57 29 186 31 236 2 89 -52 131
-116 137 -210 5 -93 -12 -142 -74 -202 -30 -29 -62 -53 -71 -53 -33 -1 -54
-28 -57 -72 -2 -24 1 -49 7 -55 15 -18 498 -19 516 -1 15 15 16 72 2 98 -5 10
-25 23 -44 30 -41 13 -111 86 -133 138 -24 58 -26 169 -3 266 20 88 76 226 91
226 5 0 9 6 9 13 0 6 16 33 35 59 44 59 99 79 152 54 18 -9 33 -20 33 -25 0
-6 8 -18 19 -28 52 -51 125 -227 145 -354 16 -96 11 -150 -19 -217 -25 -55
-97 -132 -125 -132 -19 -1 -50 -24 -50 -39 0 -6 -5 -11 -12 -11 -9 0 -9 -3 0
-12 7 -7 12 -21 12 -33 0 -38 19 -45 119 -45 66 0 91 -3 81 -10 -10 -6 -11
-10 -2 -10 20 0 15 -67 -5 -72 -10 -3 -220 -5 -468 -5 -325 -1 -452 2 -457 11
-6 8 -8 8 -8 0 0 -8 -408 -11 -1517 -12 -835 0 -1530 2 -1546 4 -22 5 -27 11
-27 34 0 59 1 60 135 60 138 0 147 4 147 66 0 25 3 33 9 23 5 -8 9 -9 9 -4 0
6 -4 15 -9 20 -5 6 -11 23 -13 40 -3 29 -5 30 -77 41 -61 9 -78 16 -98 38 -12
15 -23 24 -23 21 0 -14 -29 24 -50 66 -58 113 -6 264 113 325 15 8 27 21 27
29 0 8 4 15 8 15 5 0 7 13 4 28 -3 22 6 38 41 78 l45 49 67 0 c64 0 68 -1 98
-36 18 -20 39 -46 48 -58 9 -12 29 -24 45 -27 38 -7 93 -51 117 -94 15 -28 18
-45 12 -90 -8 -62 -8 -98 -1 -187 9 -122 -36 -187 -155 -226 -9 -3 -32 -2 -51
2 -51 12 -68 -2 -68 -53 0 -72 -28 -68 452 -67 265 1 278 2 288 21 7 13 10
555 10 1735 0 1663 2 1767 28 1751 5 -3 13 -2 19 2 6 4 58 6 115 5 56 -1 112
-2 123 -2z"/>
<path d="M1691 3962 c-121 -1 -220 -7 -226 -12 -9 -7 -12 -135 -14 -487 0
-263 -3 -493 -5 -510 -2 -18 0 -31 3 -28 4 2 5 -24 3 -58 -2 -34 -4 -69 -3
-77 3 -34 4 -119 2 -170 -1 -30 -1 -71 -1 -90 1 -19 1 -60 1 -90 0 -30 0 -68
1 -85 1 -16 1 -46 0 -65 -1 -19 -2 -193 -2 -387 0 -193 0 -355 -1 -360 -1 -4
-1 -12 0 -18 2 -5 2 -75 1 -155 -2 -175 -2 -169 -1 -350 0 -80 0 -158 0 -175
-3 -173 3 -276 17 -290 21 -20 355 -22 372 -2 6 7 12 89 14 199 2 102 7 190
11 195 12 12 598 13 620 2 10 -6 14 -15 11 -21 -4 -7 -3 -8 4 -4 8 4 11 -46
12 -175 0 -118 4 -187 11 -196 16 -18 362 -19 377 0 16 19 15 3369 -1 3391
-11 14 -67 16 -502 19 -269 1 -586 1 -704 -1z m1189 -1712 l0 -1690 -175 0
-175 0 0 188 c0 154 -3 192 -16 210 -15 22 -16 22 -334 22 -318 0 -319 0 -334
-22 -13 -18 -16 -56 -16 -210 l0 -188 -177 0 -178 0 0 1690 0 1690 703 0 702
0 0 -1690z"/>
<path d="M1620 3728 l0 -73 140 3 140 3 0 70 0 69 -140 0 -140 0 0 -72z m247
38 c2 -2 5 -21 6 -42 l2 -39 -104 -3 c-67 -2 -108 1 -117 9 -20 17 -18 77 2
81 23 4 206 -1 211 -6z"/>
<path d="M2040 3728 l0 -73 140 0 140 0 0 73 0 72 -140 0 -140 0 0 -72z m223
43 c37 -1 37 -1 37 -45 l0 -44 -121 -1 -120 -1 3 42 c3 41 5 43 38 49 19 3 55
4 80 3 25 -1 62 -2 83 -3z"/>
<path d="M2460 3728 l0 -73 140 0 140 0 0 73 0 72 -140 0 -140 0 0 -72z m188
43 c78 -1 83 -6 66 -68 -6 -22 -11 -23 -118 -23 l-112 0 1 43 c0 45 12 55 65
51 14 -1 58 -2 98 -3z"/>
<path d="M1620 3445 l0 -70 140 0 140 0 0 72 0 73 -140 -2 -140 -2 0 -71z
m251 38 c2 -12 2 -46 1 -65 -2 -16 -15 -18 -116 -18 l-114 0 1 45 1 45 113 0
c62 0 114 -3 114 -7z"/>
<path d="M2040 3448 l0 -73 140 0 140 0 0 73 0 72 -140 0 -140 0 0 -72z m260
-3 l0 -46 -117 3 -118 3 -3 43 -3 42 120 0 121 0 0 -45z"/>
<path d="M2460 3447 l0 -72 140 0 140 0 0 71 0 71 -140 2 -140 1 0 -73z m255
-2 l0 -40 -117 -3 c-117 -3 -118 -2 -118 20 1 66 2 66 123 65 l112 -2 0 -40z"/>
<path d="M1620 3163 l0 -73 140 0 140 0 0 73 0 72 -140 0 -140 0 0 -72z m241
32 c0 -5 5 -15 9 -21 5 -5 7 -20 4 -31 -5 -19 -14 -22 -87 -25 -45 -2 -96 -1
-112 2 -27 5 -30 9 -32 47 l-2 42 109 -2 c65 -1 110 -6 111 -12z"/>
<path d="M2040 3163 l0 -73 140 0 140 0 0 73 0 72 -140 0 -140 0 0 -72z m258
4 l-3 -42 -117 -2 -118 -2 0 38 c0 22 6 42 13 44 6 3 61 5 120 5 l108 0 -3
-41z"/>
<path d="M2460 3163 l0 -73 140 0 140 0 0 73 0 72 -140 0 -140 0 0 -72z m256
2 l0 -45 -112 0 c-122 0 -124 1 -124 60 l0 29 118 0 117 1 1 -45z"/>
<path d="M1620 2880 l0 -70 140 0 140 0 0 70 0 70 -140 0 -140 0 0 -70z m253
6 c-1 -21 -7 -43 -15 -47 -10 -7 -102 -7 -211 1 -5 0 -4 69 2 88 1 1 52 1 114
0 l112 -3 -2 -39z"/>
<path d="M2040 2880 l0 -70 140 0 140 0 0 70 0 70 -140 0 -140 0 0 -70z m254
28 c11 -43 7 -68 -11 -69 -96 -4 -200 -5 -209 -2 -6 2 -11 24 -13 48 l-2 45
114 0 c110 0 115 -1 121 -22z"/>
<path d="M2460 2880 l0 -70 140 0 140 0 0 70 0 70 -140 0 -140 0 0 -70z m258
5 c1 -24 -3 -47 -9 -50 -5 -4 -58 -3 -118 0 -116 8 -116 7 -104 68 l5 27 113
0 112 0 1 -45z"/>
<path d="M1620 2600 l0 -70 140 0 140 0 0 70 0 70 -140 0 -140 0 0 -70z m255
0 l0 -45 -112 -2 c-65 -1 -115 2 -119 8 -3 5 -3 28 1 50 l7 40 111 -3 112 -3
0 -45z"/>
<path d="M2040 2600 l0 -70 140 0 140 0 0 70 0 70 -140 0 -140 0 0 -70z m259
5 c-3 -54 -13 -58 -148 -53 l-92 3 2 40 c1 22 4 43 6 48 2 4 56 7 119 7 l115
0 -2 -45z"/>
<path d="M2460 2600 l0 -70 140 0 140 0 0 70 0 70 -140 0 -140 0 0 -70z m253
23 c13 -76 19 -73 -111 -70 l-117 2 -2 48 -2 47 114 0 113 0 5 -27z"/>
<path d="M1620 2320 l0 -70 140 0 140 0 0 70 0 70 -140 0 -140 0 0 -70z m251
35 c1 -8 2 -30 3 -47 l1 -33 -115 0 -115 0 -1 40 c-1 22 1 43 3 48 2 4 53 7
114 7 90 0 109 -3 110 -15z"/>
<path d="M2040 2320 l0 -70 140 0 140 0 0 70 0 70 -140 0 -140 0 0 -70z m260
3 l0 -48 -102 -2 c-57 -1 -111 0 -120 3 -21 6 -25 64 -5 65 10 0 10 2 0 6 -35
14 -1 21 107 22 l120 2 0 -48z"/>
<path d="M2460 2320 l0 -70 140 0 140 0 0 70 0 70 -140 0 -140 0 0 -70z m255
0 l0 -45 -116 -1 -115 -2 2 47 c1 25 2 47 3 49 1 1 52 1 113 0 l113 -3 0 -45z"/>
<path d="M1620 2040 l0 -70 140 0 140 0 0 70 0 70 -140 0 -140 0 0 -70z m255
0 l-1 -45 -115 -3 -116 -3 -1 43 c-1 24 3 45 10 50 7 4 60 7 118 5 l105 -2 0
-45z"/>
<path d="M2040 2040 l0 -70 140 0 140 0 0 70 0 70 -140 0 -140 0 0 -70z m258
41 c1 -1 2 -21 2 -46 l0 -44 -118 0 -119 1 -1 41 c-1 23 3 45 10 49 10 7 200
5 226 -1z"/>
<path d="M2460 2040 l0 -70 140 0 140 0 0 70 0 70 -140 0 -140 0 0 -70z m258
-2 l2 -48 -119 0 -119 0 2 43 c1 52 7 54 136 53 l95 -1 3 -47z"/>
<path d="M1620 1760 l0 -70 140 0 140 0 0 70 0 70 -140 0 -140 0 0 -70z m244
39 c4 -4 8 -24 9 -45 l2 -39 -116 -3 -115 -3 -3 45 c-1 36 2 45 16 48 30 6
201 3 207 -3z"/>
<path d="M2040 1760 l0 -70 140 0 140 0 0 70 0 70 -140 0 -140 0 0 -70z m233
44 c25 -5 27 -9 27 -50 l0 -44 -120 0 -120 0 0 44 c0 27 5 46 13 49 18 6 167
7 200 1z"/>
<path d="M2460 1760 l0 -70 140 0 140 0 0 70 0 70 -140 0 -140 0 0 -70z m256
-3 l1 -48 -113 2 -113 1 -6 28 c-7 30 -4 52 8 61 4 3 56 5 115 5 l107 -1 1
-48z"/>
<path d="M1620 1480 l0 -70 140 0 140 0 0 70 0 70 -140 0 -140 0 0 -70z m251
28 c4 -5 5 -24 4 -42 l-2 -31 -114 0 -114 0 -3 39 c-2 21 1 42 6 45 17 10 216
1 223 -11z"/>
<path d="M2040 1478 l0 -73 140 0 140 0 0 73 0 72 -140 0 -140 0 0 -72z m246
42 c5 0 11 -20 13 -44 l2 -45 -121 0 -120 -1 0 45 0 44 73 4 c39 2 88 2 107 1
19 -2 40 -3 46 -4z"/>
<path d="M2460 1478 l0 -73 140 0 140 0 0 73 0 72 -140 0 -140 0 0 -72z m213
43 l49 0 -4 -43 -4 -43 -114 0 c-125 0 -130 3 -116 60 7 26 28 33 96 28 25 -1
67 -2 93 -2z"/>
<path d="M1620 1198 l0 -73 140 0 140 0 0 73 0 72 -140 0 -140 0 0 -72z m255
-3 l0 -40 -115 0 c-125 0 -130 3 -116 60 6 24 8 24 119 22 l112 -2 0 -40z"/>
<path d="M2040 1198 l0 -73 140 0 140 0 0 73 0 72 -140 0 -140 0 0 -72z m258
0 l-3 -43 -117 -2 -118 -1 0 44 0 44 121 0 120 0 -3 -42z"/>
<path d="M2460 1198 l0 -73 140 0 140 0 0 73 0 72 -140 0 -140 0 0 -72z m256
18 c14 -58 9 -61 -117 -64 l-115 -3 -1 38 c-1 21 1 41 4 45 2 5 53 8 113 8
108 0 110 0 116 -24z"/>
<path d="M3968 1308 c-62 -82 -118 -256 -118 -362 0 -70 27 -138 60 -156 38
-20 50 2 50 91 l0 79 49 0 50 0 -2 -81 c-2 -65 1 -83 14 -90 39 -20 98 69 99
149 0 69 -39 210 -82 297 -22 44 -45 86 -50 93 -18 21 -45 13 -70 -20z m89
-55 c54 -103 86 -211 87 -298 1 -61 -3 -76 -29 -120 l-30 -50 -5 100 -5 100
-65 0 -65 0 -5 -100 -5 -100 -30 39 c-52 68 -47 184 15 344 28 74 78 162 90
162 4 0 25 -35 47 -77z"/>
<path d="M526 1265 c-19 -18 -26 -34 -26 -63 0 -49 -28 -86 -86 -113 -80 -38
-106 -144 -55 -222 19 -30 62 -57 90 -57 28 0 61 30 61 56 0 22 4 24 50 24 33
0 50 -4 51 -12 2 -30 26 -108 33 -108 1 0 15 -4 32 -9 23 -6 40 -5 62 6 50 24
64 84 42 176 -13 53 -6 102 12 91 8 -5 9 -2 5 10 -4 10 -7 30 -7 45 0 41 -41
77 -87 79 -37 2 -83 39 -83 68 0 12 -46 54 -60 54 -4 0 -19 -11 -34 -25z m82
-47 c24 -51 62 -78 110 -78 43 0 56 -21 47 -78 -9 -58 -9 -110 0 -184 7 -52 5
-59 -18 -82 -34 -34 -60 -33 -91 5 -19 22 -26 42 -26 72 l0 42 -70 -3 -70 -4
0 -33 c0 -61 -72 -53 -117 14 -45 67 -20 147 59 187 56 28 88 73 88 123 0 38
25 73 49 69 9 -2 26 -24 39 -50z"/>
<path d="M3289 1047 c-88 -59 -98 -190 -19 -254 38 -31 54 -16 54 47 l0 51 45
-3 c46 -3 46 -3 52 -46 10 -75 44 -81 89 -15 31 46 32 132 2 172 -53 73 -155
94 -223 48z m160 -16 c72 -51 86 -127 38 -199 -39 -59 -50 -54 -45 18 l4 60
-71 0 -71 0 4 -60 c5 -74 -7 -78 -48 -13 -33 52 -37 78 -16 126 36 86 135 118
205 68z"/>
<path d="M1969 858 c-18 -7 -19 -18 -19 -151 0 -98 4 -147 12 -155 17 -17 419
-17 436 0 18 18 17 297 -2 304 -21 8 -405 10 -427 2z m421 -155 l0 -143 -210
0 -210 0 0 143 0 142 210 0 210 0 0 -142z"/>
<path d="M853 3370 c-317 -5 -333 -6 -347 -25 -13 -17 -15 -132 -16 -907 l0
-888 70 0 70 0 0 843 0 842 283 -3 283 -3 -1 71 c-1 39 -4 71 -6 73 -2 1 -153
0 -336 -3z m317 -65 l0 -45 -92 -1 c-364 -3 -444 -5 -455 -12 -10 -6 -13 -186
-13 -843 l0 -835 -47 3 -48 3 -1 869 c-1 835 -1 869 17 887 18 18 40 19 329
19 l310 0 0 -45z"/>
<path d="M3164 3371 c-2 -2 -4 -35 -4 -73 l0 -69 285 3 285 3 0 -877 0 -878
70 0 70 0 0 916 c0 881 -2 935 -27 964 -6 6 -673 17 -679 11z m651 -29 c27
-20 30 -57 28 -332 -2 -157 -2 -296 -1 -310 3 -50 1 -116 -4 -147 -4 -18 -2
-35 3 -38 4 -3 6 -40 2 -83 -3 -42 -5 -81 -4 -87 3 -26 6 -803 2 -822 -3 -20
-9 -23 -47 -23 l-44 0 0 869 c0 685 -3 871 -12 878 -7 4 -132 8 -278 8 l-265
1 -2 47 -2 47 307 0 c169 0 312 -4 317 -8z"/>
<path d="M1243 3293 c15 -2 37 -2 50 0 12 2 0 4 -28 4 -27 0 -38 -2 -22 -4z"/>
<path d="M3073 3293 c15 -2 37 -2 50 0 12 2 0 4 -28 4 -27 0 -38 -2 -22 -4z"/>
<path d="M770 2950 l0 -140 69 0 70 0 3 140 3 140 -72 0 -73 0 0 -140z m120 4
l0 -112 -27 -5 c-52 -10 -62 -6 -67 32 -5 27 -2 143 4 199 0 1 20 1 45 0 l45
-1 0 -113z"/>
<path d="M1055 2950 l0 -140 70 0 70 0 0 140 0 140 -70 0 -70 0 0 -140z m117
53 c6 -122 0 -160 -25 -167 -32 -8 -65 3 -69 22 -1 10 -2 61 0 115 l3 97 44 0
43 0 4 -67z"/>
<path d="M3160 2950 l0 -140 73 0 72 0 0 140 0 140 -72 0 -73 0 0 -140z m119
5 c-1 -109 -2 -115 -23 -119 -66 -14 -73 0 -68 137 l3 97 45 0 45 0 -2 -115z"/>
<path d="M3445 2950 l0 -140 73 0 72 0 0 140 0 140 -72 0 -73 0 0 -140z m117
47 c1 -70 1 -115 -1 -147 -1 -14 -29 -18 -83 -11 -5 1 -8 52 -8 114 l0 113 45
2 45 2 2 -73z"/>
<path d="M770 2460 l0 -140 73 0 72 0 0 140 0 140 -72 0 -73 0 0 -140z m120
-2 l0 -118 -37 0 c-21 0 -43 4 -49 8 -8 5 -11 44 -9 117 2 61 3 111 4 113 1 2
21 2 46 1 l45 -3 0 -118z"/>
<path d="M1055 2460 l0 -140 70 0 70 0 0 140 0 140 -70 0 -70 0 0 -140z m115
0 l0 -120 -39 0 c-22 0 -42 4 -46 9 -3 6 -6 56 -6 112 0 112 3 119 59 119 l32
0 0 -120z"/>
<path d="M3160 2460 l0 -140 73 0 72 0 0 140 0 140 -72 0 -73 0 0 -140z m120
0 l0 -116 -44 -3 -44 -2 -1 111 c-1 62 1 115 4 119 2 5 22 8 45 8 l40 0 0
-117z"/>
<path d="M3445 2460 l0 -140 73 0 72 0 0 140 0 140 -72 0 -73 0 0 -140z m103
111 c12 -7 17 -101 13 -214 -1 -15 -8 -18 -43 -15 l-43 3 -3 116 -3 116 33 1
c18 1 39 -2 46 -7z"/>
<path d="M770 1970 l0 -140 73 0 72 0 0 140 0 140 -72 0 -73 0 0 -140z m120 0
l0 -120 -44 0 c-26 0 -46 5 -48 13 -3 6 -4 41 -2 77 2 36 3 84 4 108 l0 42 45
0 45 0 0 -120z"/>
<path d="M1055 1970 l0 -140 70 0 70 0 0 140 0 140 -70 0 -70 0 0 -140z m117
46 c2 -39 2 -92 0 -118 l-3 -48 -45 0 -44 0 -2 40 c-5 118 0 192 12 185 6 -3
10 -2 10 4 0 6 15 10 34 9 l35 -1 3 -71z"/>
<path d="M3160 1970 l0 -140 73 0 72 0 0 140 0 140 -72 0 -73 0 0 -140z m120
0 l0 -120 -45 0 c-45 0 -46 0 -44 33 1 17 1 37 -1 42 -1 6 -2 42 -1 82 1 77 1
78 69 82 22 1 22 -1 22 -119z"/>
<path d="M3445 1970 l0 -140 73 0 72 0 0 140 0 140 -72 0 -73 0 0 -140z m117
101 c3 -16 3 -72 0 -168 l-2 -53 -45 0 -45 0 0 120 0 121 44 -2 c31 -2 46 -7
48 -18z"/>
<path d="M770 1481 l0 -139 71 -4 c39 -2 71 -2 72 -1 1 1 1 65 -1 142 l-3 141
-70 0 -69 0 0 -139z m111 109 c5 0 9 -52 9 -116 l0 -115 -47 3 -48 3 0 85 c-1
118 3 138 29 143 11 2 27 3 34 1 8 -2 18 -4 23 -4z"/>
<path d="M1056 1478 c0 -79 4 -142 7 -140 4 1 35 2 70 2 l62 0 0 140 0 140
-70 0 -71 0 2 -142z m116 12 c4 -132 5 -130 -48 -130 l-44 0 0 114 c0 111 1
115 23 118 12 2 32 2 44 0 20 -4 22 -10 25 -102z"/>
<path d="M3162 1479 l3 -141 68 0 68 0 2 141 2 141 -73 0 -73 0 3 -141z m101
112 c15 -1 17 -11 16 -88 0 -49 0 -92 1 -98 8 -37 0 -45 -45 -45 -29 0 -45 4
-46 13 -1 19 0 117 2 172 2 48 4 50 28 49 14 -2 34 -3 44 -3z"/>
<path d="M3447 1480 c1 -77 5 -140 8 -140 3 0 34 0 70 0 l65 0 0 140 0 140
-72 0 -73 0 2 -140z m114 66 c2 -80 1 -121 -2 -153 -3 -32 -5 -33 -46 -33
l-43 0 0 114 c0 125 1 126 63 118 24 -4 27 -8 28 -46z"/>
<path d="M3778 1445 c-3 -3 -3 -18 0 -32 5 -25 6 -25 13 -8 14 36 6 59 -13 40z"/>
<path d="M1059 1125 c0 0 -1 -64 -2 -143 l-2 -142 70 0 70 0 -1 141 -2 141
-66 2 c-36 0 -66 1 -67 1z m111 -45 c3 -4 4 -53 2 -109 l-3 -101 -45 0 -44 0
0 114 c0 101 2 115 18 118 19 5 64 -9 72 -22z"/>
</g>
</svg>
