<?xml version="1.0" standalone="no"?>
<!DOCTYPE svg PUBLIC "-//W3C//DTD SVG 20010904//EN"
 "http://www.w3.org/TR/2001/REC-SVG-20010904/DTD/svg10.dtd">
<svg version="1.0" xmlns="http://www.w3.org/2000/svg"
 width="450.000000pt" height="450.000000pt" viewBox="0 0 450.000000 450.000000"
 preserveAspectRatio="xMidYMid meet">
<metadata>
Created by potrace 1.10, written by Peter Selinger 2001-2011
</metadata>
<g transform="translate(0.000000,450.000000) scale(0.100000,-0.100000)"
fill="#000000" stroke="none">
<path d="M1393 4073 c-56 -10 -53 102 -53 -1780 l0 -1733 -355 0 -355 0 0 43
0 43 59 -4 c146 -11 245 119 211 277 -10 49 -10 69 0 105 16 57 6 124 -23 168
-27 40 -82 78 -113 78 -15 0 -32 13 -51 42 -15 22 -40 50 -54 61 -34 24 -106
33 -152 18 -50 -17 -105 -81 -113 -132 -8 -45 -23 -64 -72 -91 -18 -9 -45 -38
-61 -63 -70 -111 -58 -247 30 -334 45 -46 87 -64 147 -65 61 -1 65 -8 60 -92
l-3 -49 -143 -3 -142 -3 0 -64 c0 -45 4 -66 13 -67 34 -4 4025 -5 4045 -1 20
5 22 11 22 69 l0 64 -104 0 c-93 0 -104 2 -109 19 -9 34 4 69 27 75 75 19 155
125 175 232 27 143 -75 443 -186 545 -68 62 -135 52 -201 -30 -79 -98 -162
-332 -162 -456 0 -126 76 -251 174 -286 34 -12 36 -16 36 -56 l0 -43 -250 0
-250 0 0 40 c0 37 3 40 45 59 62 28 130 100 150 162 21 62 17 158 -9 211 -24
50 -82 109 -131 133 -30 15 -61 20 -120 20 -70 0 -87 -4 -133 -29 -58 -33
-112 -97 -132 -160 -16 -50 -8 -161 14 -204 25 -49 92 -111 142 -133 41 -19
44 -22 44 -59 l0 -40 -145 0 -145 0 0 1734 c0 1692 0 1734 -19 1757 l-19 24
-784 1 c-430 0 -793 -1 -805 -3z m1497 -1823 l0 -1690 -180 0 -180 0 0 185 c0
184 0 186 -25 210 l-24 25 -301 0 -301 0 -24 -25 c-25 -24 -25 -26 -25 -210
l0 -185 -180 0 -180 0 0 1690 0 1690 710 0 710 0 0 -1690z m1181 -1022 c43
-85 79 -217 79 -288 0 -48 -35 -131 -57 -138 -10 -3 -13 19 -13 87 l0 91 -70
0 -70 0 0 -97 0 -96 -21 19 c-37 33 -50 72 -50 142 1 103 39 223 107 340 32
54 41 48 95 -60z m-3473 10 c34 -62 65 -89 110 -95 65 -9 78 -34 56 -108 -15
-54 -15 -62 0 -119 10 -34 14 -71 10 -81 -12 -33 -46 -65 -70 -65 -34 0 -74
54 -74 101 l0 39 -70 0 -70 0 0 -35 c0 -28 -4 -36 -24 -41 -35 -8 -85 22 -102
61 -33 79 -5 150 70 183 54 24 74 53 85 122 12 76 49 94 79 38z m2842 -198
c77 -39 101 -139 50 -210 -34 -47 -50 -40 -50 25 l0 55 -65 0 -65 0 0 -55 c0
-65 -16 -72 -51 -24 -49 70 -28 163 47 206 48 28 84 29 134 3z m-1050 -335 l0
-145 -210 0 -210 0 0 145 0 145 210 0 210 0 0 -145z"/>
<path d="M1620 3725 l0 -65 140 0 140 0 0 65 0 65 -140 0 -140 0 0 -65z"/>
<path d="M2040 3725 l0 -65 140 0 140 0 0 65 0 65 -140 0 -140 0 0 -65z"/>
<path d="M2460 3725 l0 -65 140 0 140 0 0 65 0 65 -140 0 -140 0 0 -65z"/>
<path d="M1620 3445 l0 -65 140 0 140 0 0 65 0 65 -140 0 -140 0 0 -65z"/>
<path d="M2040 3445 l0 -65 140 0 140 0 0 65 0 65 -140 0 -140 0 0 -65z"/>
<path d="M2460 3445 l0 -65 140 0 140 0 0 65 0 65 -140 0 -140 0 0 -65z"/>
<path d="M1620 3165 l0 -65 140 0 140 0 0 65 0 65 -140 0 -140 0 0 -65z"/>
<path d="M2040 3165 l0 -65 140 0 140 0 0 65 0 65 -140 0 -140 0 0 -65z"/>
<path d="M2460 3165 l0 -65 140 0 140 0 0 65 0 65 -140 0 -140 0 0 -65z"/>
<path d="M1620 2885 l0 -65 140 0 140 0 0 65 0 65 -140 0 -140 0 0 -65z"/>
<path d="M2040 2885 l0 -65 140 0 140 0 0 65 0 65 -140 0 -140 0 0 -65z"/>
<path d="M2460 2885 l0 -65 140 0 140 0 0 65 0 65 -140 0 -140 0 0 -65z"/>
<path d="M1620 2600 l0 -71 138 3 137 3 3 68 3 67 -141 0 -140 0 0 -70z"/>
<path d="M2040 2600 l0 -70 140 0 140 0 0 70 0 70 -140 0 -140 0 0 -70z"/>
<path d="M2462 2603 l3 -68 138 -3 137 -3 0 71 0 70 -140 0 -141 0 3 -67z"/>
<path d="M1620 2320 l0 -70 140 0 140 0 0 70 0 70 -140 0 -140 0 0 -70z"/>
<path d="M2040 2320 l0 -70 140 0 140 0 0 70 0 70 -140 0 -140 0 0 -70z"/>
<path d="M2460 2320 l0 -70 140 0 140 0 0 70 0 70 -140 0 -140 0 0 -70z"/>
<path d="M1620 2040 l0 -70 140 0 141 0 -3 68 -3 67 -137 3 -138 3 0 -71z"/>
<path d="M2040 2040 l0 -70 140 0 140 0 0 70 0 70 -140 0 -140 0 0 -70z"/>
<path d="M2460 2040 l0 -70 140 0 140 0 0 70 0 70 -140 0 -140 0 0 -70z"/>
<path d="M1620 1760 l0 -70 140 0 141 0 -3 68 -3 67 -137 3 -138 3 0 -71z"/>
<path d="M2040 1760 l0 -70 140 0 140 0 0 68 0 69 -140 2 -140 1 0 -70z"/>
<path d="M2478 1823 c-15 -4 -18 -16 -18 -69 l0 -64 140 0 140 0 0 69 0 69
-122 0 c-68 -1 -131 -3 -140 -5z"/>
<path d="M1620 1475 l0 -65 140 0 140 0 0 65 0 65 -140 0 -140 0 0 -65z"/>
<path d="M2040 1475 l0 -65 140 0 140 0 0 65 0 65 -140 0 -140 0 0 -65z"/>
<path d="M2460 1475 l0 -65 140 0 140 0 0 65 0 65 -140 0 -140 0 0 -65z"/>
<path d="M1620 1195 l0 -65 140 0 140 0 0 65 0 65 -140 0 -140 0 0 -65z"/>
<path d="M2040 1195 l0 -65 140 0 140 0 0 65 0 65 -140 0 -140 0 0 -65z"/>
<path d="M2460 1195 l0 -65 140 0 140 0 0 65 0 65 -140 0 -140 0 0 -65z"/>
<path d="M522 3354 l-22 -15 0 -895 0 -894 65 0 65 0 0 845 0 845 280 0 280 0
0 65 0 65 -323 0 c-276 0 -326 -2 -345 -16z"/>
<path d="M3170 3305 l0 -65 280 0 280 0 0 -880 0 -880 65 0 65 0 0 929 0 930
-22 15 c-19 14 -69 16 -345 16 l-323 0 0 -65z"/>
<path d="M780 2955 l0 -135 65 0 65 0 0 135 0 135 -65 0 -65 0 0 -135z"/>
<path d="M1060 2956 l0 -134 29 -4 c16 -2 45 -2 65 0 l36 4 0 134 0 134 -65 0
-65 0 0 -134z"/>
<path d="M3170 2955 l0 -135 65 0 65 0 0 135 0 135 -65 0 -65 0 0 -135z"/>
<path d="M3450 2956 l0 -134 65 -4 65 -3 0 138 0 137 -65 0 -65 0 0 -134z"/>
<path d="M780 2460 l0 -140 65 0 65 0 0 140 0 140 -65 0 -65 0 0 -140z"/>
<path d="M1060 2460 l0 -140 65 0 65 0 0 140 0 140 -65 0 -65 0 0 -140z"/>
<path d="M3170 2460 l0 -140 65 0 65 0 0 140 0 140 -65 0 -65 0 0 -140z"/>
<path d="M3450 2460 l0 -140 65 0 65 0 0 140 0 140 -65 0 -65 0 0 -140z"/>
<path d="M780 1970 l0 -140 65 0 65 0 0 140 0 140 -65 0 -65 0 0 -140z"/>
<path d="M1060 1970 l0 -140 65 0 65 0 0 140 0 140 -65 0 -65 0 0 -140z"/>
<path d="M3170 1970 l0 -140 65 0 65 0 0 140 0 140 -65 0 -65 0 0 -140z"/>
<path d="M3450 1970 l0 -140 65 0 65 0 0 140 0 140 -65 0 -65 0 0 -140z"/>
<path d="M780 1475 l0 -135 65 0 65 0 0 135 0 135 -65 0 -65 0 0 -135z"/>
<path d="M1060 1475 l0 -135 65 0 65 0 0 135 0 135 -65 0 -65 0 0 -135z"/>
<path d="M3170 1475 l0 -135 65 0 65 0 0 135 0 135 -65 0 -65 0 0 -135z"/>
<path d="M3450 1475 l0 -135 65 0 65 0 0 135 0 135 -65 0 -65 0 0 -135z"/>
<path d="M1060 985 l0 -135 65 0 65 0 0 135 0 135 -65 0 -65 0 0 -135z"/>
</g>
</svg>
