<?xml version="1.0" standalone="no"?>
<!DOCTYPE svg PUBLIC "-//W3C//DTD SVG 20010904//EN"
 "http://www.w3.org/TR/2001/REC-SVG-20010904/DTD/svg10.dtd">
<svg version="1.0" xmlns="http://www.w3.org/2000/svg"
 width="300.000000pt" height="300.000000pt" viewBox="0 0 300.000000 300.000000"
 preserveAspectRatio="xMidYMid meet">
<metadata>
Created by potrace 1.10, written by Peter Selinger 2001-2011
</metadata>
<g transform="translate(0.000000,300.000000) scale(0.100000,-0.100000)"
fill="#000000" stroke="none">
<path d="M872 2743 c-145 -58 -260 -109 -255 -113 4 -4 97 -47 207 -96 l199
-88 -93 -46 -92 -46 264 -116 263 -116 82 45 83 45 187 -87 c104 -48 193 -88
199 -88 14 0 474 284 474 293 0 3 -47 26 -105 50 -58 24 -105 45 -105 47 0 1
30 21 66 44 36 23 62 45 57 49 -7 7 -708 285 -780 311 -30 10 -39 7 -107 -30
l-74 -42 -102 46 c-57 25 -103 45 -104 44 0 0 -119 -48 -264 -106z m832 -42
c102 -46 183 -87 181 -91 -2 -4 -43 -30 -90 -59 l-86 -53 -37 15 c-20 9 -109
50 -197 92 -113 54 -155 79 -145 85 8 5 51 29 95 54 44 25 83 45 86 43 4 -1
90 -40 193 -86z m-199 -160 l185 -90 0 -95 c0 -56 -4 -96 -10 -96 -25 0 -375
191 -379 206 -4 20 9 164 14 164 3 0 88 -40 190 -89z m395 -78 l0 -88 -38 -27
c-20 -14 -56 -41 -79 -58 l-43 -32 0 99 0 98 73 47 c39 26 75 48 80 48 4 0 7
-39 7 -87z"/>
<path d="M600 1737 l0 -842 89 -57 c49 -31 92 -54 95 -50 3 3 6 365 6 804 l0
799 55 25 c30 14 55 27 55 29 0 1 -44 22 -97 46 -54 23 -122 53 -150 66 l-53
23 0 -843z m110 618 c26 -14 30 -21 30 -60 l0 -44 -32 14 c-30 12 -33 18 -36
59 -2 25 0 46 3 46 3 0 19 -7 35 -15z m5 -237 c21 -9 25 -18 25 -55 0 -46 -5
-49 -45 -31 -21 9 -25 18 -25 55 0 46 5 49 45 31z m0 -240 c21 -9 25 -18 25
-55 0 -46 -5 -49 -45 -31 -21 9 -25 18 -25 55 0 46 5 49 45 31z m0 -240 c21
-9 25 -18 25 -55 0 -46 -5 -49 -45 -31 -21 9 -25 18 -25 55 0 46 5 49 45 31z
m23 -292 c2 -25 0 -46 -3 -46 -3 0 -19 7 -35 15 -26 14 -30 21 -30 60 l0 44
33 -14 c29 -12 32 -18 35 -59z m0 -240 c2 -25 0 -46 -3 -46 -3 0 -19 7 -35 15
-26 14 -30 21 -30 60 l0 44 33 -14 c29 -12 32 -18 35 -59z"/>
<path d="M2296 2447 c-18 -13 -18 -14 -1 -21 22 -8 28 -3 23 19 -3 14 -5 14
-22 2z"/>
<path d="M834 2287 c-2 -7 -3 -408 -2 -892 l3 -880 70 -37 c39 -21 76 -38 83
-38 7 0 12 14 12 40 0 41 8 47 41 30 15 -8 19 -22 19 -60 0 -28 5 -50 10 -50
6 0 10 20 10 44 l0 45 30 -10 c28 -10 30 -14 30 -65 l0 -54 110 -55 c60 -30
112 -55 115 -55 7 0 4 1640 -3 1739 l-7 84 -165 72 c-91 39 -207 90 -258 113
-64 29 -94 38 -98 29z m234 -299 c2 -22 -1 -38 -7 -38 -6 0 -40 14 -76 32
l-65 32 0 44 0 43 73 -38 c68 -36 72 -40 75 -75z m182 -88 c0 -22 -5 -40 -10
-40 -6 0 -37 14 -70 30 -60 30 -60 30 -60 75 l0 45 70 -35 c69 -35 70 -36 70
-75z m-253 -105 c63 -36 63 -36 63 -81 l0 -45 -70 37 c-70 38 -70 38 -70 81 0
24 3 43 7 43 3 0 35 -16 70 -35z m188 -98 c59 -32 60 -32 63 -80 l3 -48 -70
38 c-70 38 -71 38 -71 81 0 23 3 42 8 42 4 0 34 -15 67 -33z m-125 -252 c0
-25 -2 -45 -5 -45 -2 0 -34 16 -70 36 -65 36 -65 36 -65 80 l0 44 70 -35 70
-35 0 -45z m128 -23 c60 -31 62 -34 62 -72 0 -21 -3 -41 -7 -43 -5 -2 -36 11
-70 30 -63 35 -63 35 -63 80 0 24 3 43 8 41 4 -2 35 -18 70 -36z m-140 -199
c17 -10 22 -23 22 -53 0 -22 -5 -40 -11 -40 -6 0 -37 15 -70 33 l-59 32 0 48
0 48 48 -27 c26 -15 57 -33 70 -41z m137 -77 c57 -31 60 -35 63 -74 2 -23 0
-42 -5 -42 -4 0 -36 14 -70 32 -62 33 -63 34 -63 76 0 23 3 42 8 42 4 0 34
-15 67 -34z m-190 -170 c59 -32 60 -34 63 -80 l3 -48 -70 39 c-71 38 -71 38
-71 81 0 23 3 42 8 42 4 0 34 -15 67 -34z m190 -102 c62 -34 65 -38 65 -73 0
-21 -2 -40 -5 -43 -3 -3 -35 10 -70 29 l-65 34 0 45 c0 24 2 44 5 44 2 0 34
-16 70 -36z m-187 -172 l62 -32 0 -46 c0 -25 -3 -44 -7 -42 -5 2 -36 18 -70
36 l-63 32 0 46 c0 25 3 44 8 42 4 -2 35 -18 70 -36z m215 -119 c33 -20 37
-28 37 -63 0 -22 -3 -40 -7 -40 -3 0 -35 16 -70 35 -63 36 -63 36 -63 81 l0
45 33 -17 c17 -9 49 -28 70 -41z"/>
<path d="M2153 2122 l-203 -127 0 -887 c0 -489 3 -888 8 -887 4 0 99 69 212
153 l205 151 3 863 c2 687 0 862 -10 861 -7 -1 -104 -58 -215 -127z m157 -124
l-1 -43 -139 -93 -140 -92 0 47 0 48 133 87 c72 48 135 87 140 87 4 1 7 -18 7
-41z m0 -265 l-1 -48 -131 -85 c-72 -47 -135 -86 -140 -88 -4 -2 -8 17 -8 41
l0 45 138 90 c75 50 138 91 140 91 1 1 2 -20 2 -46z m0 -270 l0 -48 -132 -85
c-73 -47 -135 -86 -140 -88 -4 -2 -8 16 -8 41 l0 45 138 90 c75 50 138 91 140
91 1 1 2 -20 2 -46z m0 -267 l0 -44 -112 -74 c-62 -41 -125 -82 -140 -92 l-28
-18 0 46 0 47 138 89 c75 50 138 90 140 90 1 0 2 -20 2 -44z m0 -270 l0 -44
-140 -91 -140 -90 0 47 0 47 133 87 c72 47 135 87 140 87 4 1 7 -19 7 -43z m0
-268 l0 -43 -131 -85 c-73 -47 -136 -86 -140 -88 -5 -2 -9 16 -9 41 l0 44 133
86 c72 48 135 87 140 87 4 0 7 -19 7 -42z"/>
<path d="M1465 2122 l-50 -27 -2 -230 c-2 -127 1 -537 5 -912 l7 -683 53 30
52 30 0 910 c0 501 -3 910 -7 910 -5 0 -30 -13 -58 -28z"/>
<path d="M1580 1221 l0 -911 160 -80 160 -80 0 918 0 919 -151 69 c-84 38
-156 71 -160 72 -5 2 -9 -403 -9 -907z m138 625 c2 -25 0 -46 -3 -46 -3 0 -19
7 -35 15 -26 14 -30 21 -30 60 l0 44 33 -14 c29 -12 32 -18 35 -59z m112 -53
c0 -24 -2 -43 -5 -43 -4 0 -19 7 -35 15 -26 14 -30 21 -30 60 l0 45 35 -17
c32 -15 35 -20 35 -60z m-140 -148 c26 -13 30 -21 30 -55 0 -43 -5 -46 -45
-28 -21 9 -25 18 -25 55 0 23 2 43 5 43 4 0 19 -7 35 -15z m110 -50 c26 -14
30 -21 30 -60 l0 -45 -35 17 c-32 15 -35 20 -35 60 0 24 2 43 5 43 4 0 19 -7
35 -15z m-110 -220 c26 -14 30 -21 30 -60 0 -25 -2 -45 -5 -45 -4 0 -19 7 -35
15 -26 14 -30 21 -30 60 0 25 2 45 5 45 4 0 19 -7 35 -15z m138 -108 c2 -26 0
-47 -3 -47 -3 0 -19 7 -35 15 -27 14 -30 21 -30 60 l0 45 33 -13 c29 -12 32
-18 35 -60z m-108 -225 c0 -38 -2 -43 -17 -37 -10 4 -26 10 -35 12 -14 4 -18
16 -18 54 l0 49 35 -17 c32 -15 35 -20 35 -61z m110 -49 c0 -46 -5 -49 -45
-31 -22 10 -25 17 -25 59 l0 49 35 -17 c32 -15 35 -20 35 -60z m-141 -164 c28
-10 31 -15 31 -55 0 -47 -5 -51 -45 -32 -21 9 -25 18 -25 55 0 23 2 43 4 43 1
0 17 -5 35 -11z m110 -50 c28 -10 31 -15 31 -55 0 -47 -5 -51 -45 -32 -21 9
-25 18 -25 55 0 23 2 43 4 43 1 0 17 -5 35 -11z m-109 -224 c26 -14 30 -21 30
-60 0 -25 -2 -45 -5 -45 -4 0 -19 7 -35 15 -26 14 -30 21 -30 60 0 25 2 45 5
45 4 0 19 -7 35 -15z m110 -50 c26 -14 30 -21 30 -60 0 -25 -2 -45 -5 -45 -4
0 -19 7 -35 15 -26 14 -30 21 -30 60 0 25 2 45 5 45 4 0 19 -7 35 -15z"/>
</g>
</svg>
